<svg preserveAspectRatio="none" overflow="visible" style="display: block;" width="48.2603" height="80" viewBox="0 0 48.2603 80" fill="none" xmlns="http://www.w3.org/2000/svg">
<path id="Path 2" d="M24.5913 0.571429C23.3532 1.44 22.3208 3.40572 22.3284 6.41143C22.3361 8.25524 22.8542 10.4648 24.2827 12.941C22.3665 15.5505 22.0123 17.9581 22.8237 20.2476C23.4446 21.9924 23.757 22.4457 24.0389 23.4933C24.7437 26.1562 23.9665 29.341 21.8637 34.259C20.1608 38.2629 17.9475 42.4609 17.9475 47.5657C17.9602 48.734 18.0516 49.8768 18.2218 50.9943C18.4161 50.8038 18.8389 50.4114 19.357 49.9352C19.1018 45.9352 20.698 41.9124 22.6561 38.3048C25.5246 33.0171 25.8637 27.6533 25.3189 24.7086C27.3227 26.8495 30.7018 30.0419 32.6751 33.3181C33.338 34.419 33.7418 35.4629 33.8408 36.5295C33.9285 39.1162 33.117 40.9714 31.5208 42.7886C30.1723 44.3276 30.637 45.6838 30.6942 45.9429C30.797 46.3848 31.3494 48.0571 31.738 49.1581C33.2313 46.2438 37.3532 44.6019 39.2199 42.1714C39.6542 45.1619 37.3989 48 35.7227 49.9009C35.3265 50.3314 34.8884 50.7695 34.397 51.2419C31.2313 54.2667 29.1551 56.3467 28.058 58.2629C27.7723 58.6857 27.3151 59.6495 27.0789 60.3848C26.7589 61.3105 26.3513 62.8724 26.0084 65.6381C25.7418 67.2648 25.4523 69.2076 25.3532 70.0762C25.1361 72.0343 24.538 75.1619 22.1189 76.0686C21.9818 76.1117 21.8484 76.1473 21.7189 76.1752V76.1829C19.4065 76.6857 17.0332 74.7581 15.3113 71.28C14.957 71.5505 14.5723 71.7905 14.1456 71.9733C16.4808 77.4667 20.0008 80 23.0675 80C25.3989 80 27.2389 78.8229 27.8256 75.4171C28.1265 73.6914 28.3437 71.7867 28.538 69.9352C28.637 69.0438 29.0789 64.0038 29.8827 62.1867C30.8923 60.1409 33.0904 58.16 36.3627 54.8C38.3818 52.7124 39.4827 50.9752 40.0656 49.5695C41.9704 46.0952 39.6085 37.8133 39.1475 36.3314C39.1361 36.2895 39.1285 36.2705 39.0942 36.2705C39.0523 36.2705 39.037 36.2895 38.9989 36.3429C38.9989 36.3581 38.9926 36.3708 38.9799 36.381C38.1456 37.7448 36.637 39.0019 35.2389 40.0229C36.0237 37.8705 35.8103 36.2248 35.4903 34.8495V34.8419C35.4776 34.7606 35.4599 34.6806 35.437 34.6019V34.6095C34.0199 29.1162 28.3856 24.24 25.8408 21.4171C22.5494 17.7714 23.6694 15.421 24.8884 13.9276C25.1119 14.2679 25.3558 14.6171 25.6199 14.9752C30.1075 21.04 38.5608 30.6629 42.9913 39.8324C44.1151 42.141 44.9799 44.4229 45.4523 46.5905C47.2046 56.0876 40.5456 65.7371 30.5761 63.0286H30.5723C30.5062 63.0083 30.4415 62.9892 30.378 62.9714C30.1088 63.8146 29.8523 65.1594 29.6085 67.0057C31.1208 67.6419 32.7513 68.0229 34.3437 68.0991H34.3513C34.4618 68.0991 34.5837 68.1067 34.698 68.1067C42.8847 68.1981 49.3037 62.0838 48.1189 49.2533C48.1189 49.2533 47.6237 43.92 44.858 38.3048C40.4237 28.4305 32.2256 18.6629 27.197 12.3505C25.597 10.3467 24.6599 8.61333 24.1837 7.12C23.2465 4.1981 23.8523 1.93905 25.0485 0.94476C25.3189 0.723808 25.6351 0.487617 25.9323 0.331427C26.1113 0.236189 26.0389 0.0304757 25.917 0.0114281C25.8916 0.00380906 25.8561 0 25.8104 0C25.6313 0 25.2884 0.08 24.5913 0.571429ZM18.4237 72.3429L21.0827 74.5486L23.6618 71.4248L21.0065 69.2305L18.4237 72.3429ZM18.5304 17.7486C17.1932 17.779 16.1418 18.9029 16.1799 20.24C16.2218 21.5771 17.3342 22.6248 18.6751 22.5867C19.4027 22.5638 20.0351 22.2286 20.4732 21.7067L20.5189 21.6533C20.8084 23.5771 19.8789 25.1162 17.7342 26.9067C15.5284 28.7467 10.3818 31.1695 6.72083 34.0686C1.57035 38.1257 0.351301 42.5562 0.0389198 46.1448C-0.098223 47.741 0.137969 49.8476 0.576064 51.5886C1.12464 53.7752 1.92083 55.4476 1.92083 55.4476C1.92083 55.4476 1.95892 55.52 2.01988 55.6419C1.89035 58.019 2.12654 62.1676 3.46749 65.2876C5.2694 69.3219 8.5075 72.6324 13.1513 71.6571C17.8294 70.56 18.3513 62.9562 18.8884 57.3943C19.0294 56.4952 19.1704 56.3314 19.4523 56.0914C20.1989 55.4629 22.0161 53.7524 22.8923 52.9905C23.437 52.5143 23.9056 52.0457 24.2065 51.44C24.5951 50.701 24.3894 49.7181 24.3894 49.7181L23.8599 46.0648C23.7265 46.5829 23.0903 47.3143 22.2065 48.2133C21.2656 49.1543 18.778 51.28 18.5532 51.5124C18.3323 51.741 17.5208 52.3314 17.1703 55.12C16.2751 62.72 14.778 66.301 12.0923 67.5124C11.3761 67.8438 10.5875 67.9962 9.69226 68.0229C4.76274 67.9771 3.46749 61.9733 3.49416 58.6933C3.49924 58.5054 3.5056 58.3137 3.51322 58.1181C4.65988 59.661 6.35131 61.1886 8.4275 60.8724C11.7608 60.3695 10.7208 54.7619 10.2408 53.4629C9.76463 52.1524 8.47702 48.2514 5.68845 48.4495C3.7075 48.579 2.7894 50.899 2.37416 52.8457C1.9894 51.299 1.7875 49.4895 1.91321 48.0686C2.20273 44.6857 3.36463 40.4419 8.31321 36.2705C11.8294 33.3105 15.818 31.1848 18.0465 29.4324C19.4637 28.3276 20.3323 27.0819 20.8313 25.9162C20.6865 27.0514 20.4123 28.2781 19.8637 29.7029C17.8142 35.0857 11.6008 43.9695 11.5094 56.5295C11.5094 60.3924 11.8751 63.7257 12.4885 66.5905C12.8288 66.3492 13.1475 66.0521 13.4446 65.699C13.0142 63.6533 12.7665 61.3905 12.7665 58.9791C12.7665 46.4495 18.9342 37.5733 20.9494 32.2019C22.0123 29.379 22.0389 27.3105 22.0389 25.2762C22.0389 22.7771 21.4751 20.1714 20.9532 19.1581C20.3894 18.1829 19.6884 17.7448 18.6484 17.7448C18.6104 17.7448 18.571 17.746 18.5304 17.7486ZM35.9742 59.2343L39.0865 60.7086L40.8123 57.0476L37.6999 55.5848L35.9742 59.2343ZM19.8294 56.6667C21.1475 59.7486 23.1475 62.4229 25.4408 64.381C25.6846 62.7657 25.9437 61.6343 26.1799 60.819C23.8523 59.1505 22.1646 57.341 21.0904 55.5276L19.8294 56.6667ZM25.7494 52.739L28.8656 54.2133L30.5951 50.5562L27.4789 49.0819L25.7494 52.739ZM10.6904 38.1676C10.6904 38.1676 8.74749 39.539 7.97035 41.3752C7.48654 42.4838 7.51322 43.6876 7.7875 44.2705C8.06179 44.8609 8.71321 45.4209 9.55511 44.7467C10.1456 44.2705 10.4046 43.619 10.5418 43.0552C10.6142 42.7276 10.6408 42.5105 10.6408 42.3467C10.637 42.141 10.5761 41.9733 10.378 42.0229C9.81416 42.1981 10.1532 42.96 9.74559 43.3219C9.44083 43.5124 8.64845 43.4133 8.49988 42.6324C8.33607 41.8514 8.93797 40.8419 9.48655 40.1829C10.0313 39.5162 10.9951 38.64 10.9951 38.64C10.9951 38.64 11.6808 38.08 11.4523 37.8019C11.4345 37.7841 11.4116 37.7752 11.3837 37.7752C11.1818 37.7752 10.6904 38.1676 10.6904 38.1676ZM29.8523 36.141C29.6161 36.3924 28.5113 37.6038 27.4446 38.7695C26.4923 39.8095 25.5818 40.8 25.3875 41.0133C24.9265 41.5238 24.6942 42.019 24.7475 42.2819L25.0294 43.6381C25.1018 43.3829 25.3875 42.9257 25.7037 42.5752C25.9399 42.3238 27.0484 41.1048 28.1151 39.9505C29.0637 38.9105 29.9742 37.92 30.1761 37.699C30.6332 37.2 30.8656 36.6971 30.8123 36.4343L30.5265 35.0743C30.4542 35.3295 30.1761 35.7829 29.8523 36.141ZM15.3913 21.8971C14.0542 21.9314 13.0027 23.0476 13.0485 24.3886C13.0827 25.7181 14.2027 26.7695 15.5361 26.7314C16.8732 26.6933 17.917 25.5733 17.8827 24.2476C17.8446 22.9333 16.7665 21.8971 15.4637 21.8971H15.3913ZM3.88274 55.8781C4.27131 54.6705 4.96082 53.5924 6.15701 52.9181C8.11892 51.9962 8.88845 54.3505 8.88845 54.3505C8.75892 55.9391 7.53607 56.7695 6.20274 56.7695C5.40655 56.7695 4.57226 56.48 3.88274 55.8781ZM19.0142 66.899L21.6656 69.0971L24.2485 65.9886L21.597 63.7905L19.0142 66.899ZM30.9189 70.0457C30.7894 70.1029 30.7475 70.3048 30.8351 70.5867C30.9151 70.861 31.3761 72.0343 31.3761 72.0343C31.7037 72.9257 32.2599 73.9543 32.9951 74.4762C33.7951 75.04 34.2065 74.8419 34.3665 74.7771C34.4808 74.7238 34.9951 74.4076 34.8123 73.6C34.618 72.7429 34.5075 72.5105 34.3513 72.1981C34.1951 71.8895 33.9894 71.6952 33.8599 71.741C33.7913 71.7638 33.8484 72.0419 33.8484 72.2171C33.8408 72.5219 33.7304 72.7581 33.4713 72.8762C33.2389 72.979 32.6675 73.1809 32.2218 72.4C31.8675 71.7829 31.5513 70.9524 31.418 70.6171C31.3113 70.3543 31.1475 70.0343 30.9761 70.0343C30.9608 70.0343 30.9418 70.0381 30.9189 70.0457Z" fill="#DCA300"/>
</svg>
